<svg width="142" height="41" viewBox="0 0 142 41" fill="none" xmlns="http://www.w3.org/2000/svg">
<path d="M32.072 6.016V6.928C31.048 7.152 29.944 7.6 28.76 8.272C27.608 8.944 26.392 10.032 25.112 11.536L16.088 22.288L18.872 18.304L30.296 36.112C30.744 36.848 31.224 37.44 31.736 37.888C32.248 38.336 32.92 38.72 33.752 39.04V40C32.632 39.936 31.384 39.904 30.008 39.904C28.632 39.872 27.384 39.856 26.264 39.856C25.592 39.856 24.776 39.872 23.816 39.904C22.856 39.904 21.64 39.936 20.168 40V39.04C21.48 38.976 22.264 38.8 22.52 38.512C22.808 38.192 22.696 37.648 22.184 36.88L15.224 25.6C14.776 24.864 14.376 24.32 14.024 23.968C13.672 23.584 13.32 23.328 12.968 23.2C12.616 23.04 12.152 22.944 11.576 22.912V21.904C12.984 21.872 14.232 21.488 15.32 20.752C16.44 20.016 17.656 18.896 18.968 17.392L21.8 13.984C23.016 12.544 23.72 11.312 23.912 10.288C24.136 9.232 23.928 8.416 23.288 7.84C22.68 7.264 21.736 6.96 20.456 6.928V6.016C21.256 6.048 22.008 6.08 22.712 6.112C23.448 6.112 24.2 6.128 24.968 6.16C25.768 6.16 26.632 6.16 27.56 6.16C28.488 6.16 29.32 6.144 30.056 6.112C30.824 6.08 31.496 6.048 32.072 6.016ZM15.464 6.016V6.976C14.44 7.008 13.656 7.136 13.112 7.36C12.6 7.552 12.264 7.936 12.104 8.512C11.944 9.056 11.864 9.92 11.864 11.104V34.912C11.864 36.064 11.944 36.928 12.104 37.504C12.296 38.08 12.648 38.464 13.16 38.656C13.672 38.848 14.44 38.976 15.464 39.04V40C14.6 39.936 13.512 39.904 12.2 39.904C10.888 39.872 9.56 39.856 8.216 39.856C6.68 39.856 5.224 39.872 3.848 39.904C2.504 39.904 1.432 39.936 0.632 40V39.04C1.656 38.976 2.424 38.848 2.936 38.656C3.448 38.464 3.784 38.08 3.944 37.504C4.136 36.928 4.232 36.064 4.232 34.912V11.104C4.232 9.92 4.136 9.056 3.944 8.512C3.784 7.936 3.432 7.552 2.888 7.36C2.376 7.136 1.624 7.008 0.632 6.976V6.016C1.432 6.048 2.504 6.08 3.848 6.112C5.224 6.144 6.68 6.16 8.216 6.16C9.56 6.16 10.888 6.144 12.2 6.112C13.512 6.08 14.6 6.048 15.464 6.016ZM41.0416 40.336C39.6016 40.336 38.4016 40.064 37.4416 39.52C36.4816 38.976 35.7776 38.256 35.3296 37.36C34.8816 36.432 34.6576 35.424 34.6576 34.336C34.6576 32.96 34.9616 31.84 35.5696 30.976C36.2096 30.112 37.0256 29.408 38.0176 28.864C39.0096 28.32 40.0496 27.872 41.1376 27.52C42.2576 27.168 43.3136 26.832 44.3056 26.512C45.3296 26.16 46.1456 25.76 46.7536 25.312C47.3936 24.832 47.7136 24.224 47.7136 23.488V19.744C47.7136 18.912 47.5696 18.176 47.2816 17.536C47.0256 16.864 46.6096 16.352 46.0336 16C45.4896 15.648 44.7696 15.472 43.8736 15.472C43.2336 15.472 42.5936 15.568 41.9536 15.76C41.3136 15.92 40.7856 16.208 40.3696 16.624C41.2656 16.944 41.9536 17.44 42.4336 18.112C42.9456 18.752 43.2016 19.488 43.2016 20.32C43.2016 21.408 42.8176 22.272 42.0496 22.912C41.3136 23.552 40.4336 23.872 39.4096 23.872C38.2576 23.872 37.3776 23.52 36.7696 22.816C36.1936 22.08 35.9056 21.2 35.9056 20.176C35.9056 19.248 36.1296 18.48 36.5776 17.872C37.0576 17.264 37.7136 16.688 38.5456 16.144C39.4416 15.632 40.5136 15.232 41.7616 14.944C43.0416 14.656 44.4176 14.512 45.8896 14.512C47.3616 14.512 48.6896 14.672 49.8736 14.992C51.0576 15.28 52.0496 15.824 52.8496 16.624C53.5856 17.36 54.0656 18.272 54.2896 19.36C54.5136 20.416 54.6256 21.76 54.6256 23.392V36.448C54.6256 37.248 54.7056 37.808 54.8656 38.128C55.0256 38.416 55.2976 38.56 55.6816 38.56C55.9696 38.56 56.2416 38.48 56.4976 38.32C56.7856 38.16 57.0896 37.968 57.4096 37.744L57.8896 38.56C57.2176 39.136 56.4336 39.584 55.5376 39.904C54.6736 40.192 53.6976 40.336 52.6096 40.336C51.4256 40.336 50.4816 40.176 49.7776 39.856C49.0736 39.504 48.5616 39.04 48.2416 38.464C47.9536 37.888 47.8096 37.216 47.8096 36.448C47.0416 37.664 46.1136 38.624 45.0256 39.328C43.9376 40 42.6096 40.336 41.0416 40.336ZM44.4496 37.264C45.0896 37.264 45.6656 37.12 46.1776 36.832C46.7216 36.512 47.2336 36 47.7136 35.296V25.456C47.4256 25.936 47.0256 26.368 46.5136 26.752C46.0016 27.136 45.4576 27.536 44.8816 27.952C44.3056 28.336 43.7456 28.768 43.2016 29.248C42.6896 29.728 42.2736 30.32 41.9536 31.024C41.6336 31.728 41.4736 32.576 41.4736 33.568C41.4736 34.816 41.7456 35.744 42.2896 36.352C42.8336 36.96 43.5536 37.264 44.4496 37.264ZM50.9776 0.783998C51.5216 1.2 51.8096 1.776 51.8416 2.512C51.8736 3.248 51.6336 3.936 51.1216 4.576C50.6096 5.216 49.9856 5.792 49.2496 6.304C48.5136 6.816 47.6336 7.44 46.6096 8.176C45.6176 8.912 44.4176 9.936 43.0096 11.248L42.4816 10.816C43.4416 9.088 44.1456 7.648 44.5936 6.496C45.0416 5.312 45.4256 4.304 45.7456 3.472C46.0656 2.64 46.4976 1.92 47.0416 1.312C47.5216 0.671998 48.1456 0.303998 48.9136 0.207997C49.7136 0.0799971 50.4016 0.271997 50.9776 0.783998ZM69.0534 2.416V35.536C69.0534 36.88 69.2774 37.792 69.7254 38.272C70.2054 38.752 71.0054 38.992 72.1254 38.992V40C71.5174 39.968 70.6054 39.936 69.3894 39.904C68.1734 39.84 66.9414 39.808 65.6934 39.808C64.4454 39.808 63.1814 39.84 61.9014 39.904C60.6534 39.936 59.7094 39.968 59.0694 40V38.992C60.1894 38.992 60.9734 38.752 61.4214 38.272C61.9014 37.792 62.1414 36.88 62.1414 35.536V8.176C62.1414 6.736 61.9174 5.68 61.4694 5.008C61.0534 4.304 60.2534 3.952 59.0694 3.952V2.944C60.0934 3.04 61.0854 3.088 62.0454 3.088C63.3574 3.088 64.6054 3.04 65.7894 2.944C66.9734 2.816 68.0614 2.64 69.0534 2.416ZM80.4076 2.8C81.7516 2.8 82.8076 3.136 83.5756 3.808C84.3756 4.448 84.7756 5.344 84.7756 6.496C84.7756 7.648 84.3756 8.56 83.5756 9.232C82.8076 9.872 81.7516 10.192 80.4076 10.192C79.0636 10.192 77.9916 9.872 77.1916 9.232C76.4236 8.56 76.0396 7.648 76.0396 6.496C76.0396 5.344 76.4236 4.448 77.1916 3.808C77.9916 3.136 79.0636 2.8 80.4076 2.8ZM84.1516 14.656V35.536C84.1516 36.88 84.3756 37.792 84.8236 38.272C85.3036 38.752 86.1036 38.992 87.2236 38.992V40C86.6476 39.968 85.7516 39.936 84.5356 39.904C83.3196 39.84 82.0876 39.808 80.8396 39.808C79.5916 39.808 78.3276 39.84 77.0476 39.904C75.7676 39.936 74.8076 39.968 74.1676 40V38.992C75.2876 38.992 76.0716 38.752 76.5196 38.272C76.9996 37.792 77.2396 36.88 77.2396 35.536V20.416C77.2396 18.976 77.0156 17.92 76.5676 17.248C76.1516 16.544 75.3516 16.192 74.1676 16.192V15.184C75.1916 15.28 76.1836 15.328 77.1436 15.328C78.4876 15.328 79.7356 15.28 80.8876 15.184C82.0716 15.056 83.1596 14.88 84.1516 14.656ZM112.924 2.416V34.72C112.924 36.16 113.148 37.232 113.596 37.936C114.044 38.608 114.844 38.944 115.996 38.944V39.952C115.004 39.856 114.012 39.808 113.02 39.808C111.676 39.808 110.412 39.856 109.228 39.952C108.076 40.048 107.004 40.224 106.012 40.48V8.176C106.012 6.736 105.788 5.68 105.34 5.008C104.924 4.304 104.124 3.952 102.94 3.952V2.944C103.964 3.04 104.956 3.088 105.916 3.088C107.228 3.088 108.476 3.04 109.66 2.944C110.844 2.816 111.932 2.64 112.924 2.416ZM100.684 14.512C102.092 14.512 103.324 14.752 104.38 15.232C105.468 15.68 106.316 16.448 106.924 17.536L106.348 18.064C105.932 17.296 105.372 16.752 104.668 16.432C103.996 16.08 103.276 15.904 102.508 15.904C100.876 15.904 99.5803 16.864 98.6203 18.784C97.6603 20.672 97.1963 23.6 97.2283 27.568C97.2283 30.288 97.4043 32.464 97.7563 34.096C98.1403 35.696 98.6683 36.848 99.3403 37.552C100.044 38.256 100.844 38.608 101.74 38.608C102.828 38.608 103.804 38.176 104.668 37.312C105.532 36.448 105.996 35.28 106.06 33.808L106.3 35.488C105.82 37.184 105.036 38.48 103.948 39.376C102.892 40.24 101.5 40.672 99.7723 40.672C97.8843 40.672 96.1883 40.208 94.6843 39.28C93.2123 38.352 92.0603 36.928 91.2283 35.008C90.3963 33.056 89.9803 30.544 89.9803 27.472C89.9803 24.56 90.4443 22.16 91.3723 20.272C92.3003 18.352 93.5643 16.912 95.1643 15.952C96.7963 14.992 98.6363 14.512 100.684 14.512ZM124.62 40.336C123.18 40.336 121.98 40.064 121.02 39.52C120.06 38.976 119.356 38.256 118.908 37.36C118.46 36.432 118.236 35.424 118.236 34.336C118.236 32.96 118.54 31.84 119.148 30.976C119.788 30.112 120.604 29.408 121.596 28.864C122.588 28.32 123.628 27.872 124.716 27.52C125.836 27.168 126.892 26.832 127.884 26.512C128.908 26.16 129.724 25.76 130.332 25.312C130.972 24.832 131.292 24.224 131.292 23.488V19.744C131.292 18.912 131.148 18.176 130.86 17.536C130.604 16.864 130.188 16.352 129.612 16C129.068 15.648 128.348 15.472 127.452 15.472C126.812 15.472 126.172 15.568 125.532 15.76C124.892 15.92 124.364 16.208 123.948 16.624C124.844 16.944 125.532 17.44 126.012 18.112C126.524 18.752 126.78 19.488 126.78 20.32C126.78 21.408 126.396 22.272 125.628 22.912C124.892 23.552 124.012 23.872 122.988 23.872C121.836 23.872 120.956 23.52 120.348 22.816C119.772 22.08 119.484 21.2 119.484 20.176C119.484 19.248 119.708 18.48 120.156 17.872C120.636 17.264 121.292 16.688 122.124 16.144C123.02 15.632 124.092 15.232 125.34 14.944C126.62 14.656 127.996 14.512 129.468 14.512C130.94 14.512 132.268 14.672 133.452 14.992C134.636 15.28 135.628 15.824 136.428 16.624C137.164 17.36 137.644 18.272 137.868 19.36C138.092 20.416 138.204 21.76 138.204 23.392V36.448C138.204 37.248 138.284 37.808 138.444 38.128C138.604 38.416 138.876 38.56 139.26 38.56C139.548 38.56 139.82 38.48 140.076 38.32C140.364 38.16 140.668 37.968 140.988 37.744L141.468 38.56C140.796 39.136 140.012 39.584 139.116 39.904C138.252 40.192 137.276 40.336 136.188 40.336C135.004 40.336 134.06 40.176 133.356 39.856C132.652 39.504 132.14 39.04 131.82 38.464C131.532 37.888 131.388 37.216 131.388 36.448C130.62 37.664 129.692 38.624 128.604 39.328C127.516 40 126.188 40.336 124.62 40.336ZM128.028 37.264C128.668 37.264 129.244 37.12 129.756 36.832C130.3 36.512 130.812 36 131.292 35.296V25.456C131.004 25.936 130.604 26.368 130.092 26.752C129.58 27.136 129.036 27.536 128.46 27.952C127.884 28.336 127.324 28.768 126.78 29.248C126.268 29.728 125.852 30.32 125.532 31.024C125.212 31.728 125.052 32.576 125.052 33.568C125.052 34.816 125.324 35.744 125.868 36.352C126.412 36.96 127.132 37.264 128.028 37.264Z" fill="#701CDA"/>
</svg>
